<svg width="452" height="396" viewBox="0 0 452 396" fill="none" xmlns="http://www.w3.org/2000/svg">
<path d="M227.318 0C151.6 0 90 61.609 90 137.329C90 210.216 214.591 380.506 219.896 387.717L224.847 394.455C225.426 395.247 226.348 395.71 227.318 395.71C228.303 395.71 229.219 395.247 229.804 394.455L234.752 387.717C240.06 380.506 364.648 210.216 364.648 137.329C364.648 61.609 303.038 0 227.318 0ZM227.318 88.138C254.448 88.138 276.509 110.2 276.509 137.329C276.509 164.444 254.447 186.52 227.318 186.52C200.204 186.52 178.127 164.444 178.127 137.329C178.127 110.2 200.203 88.138 227.318 88.138Z" fill="white"/>
<ellipse cx="229.5" cy="144" rx="68.5" ry="80" fill="white"/>
<path d="M28.27 97V188H7.895V97H28.27ZM64.0825 135.375V151.125H22.5825V135.375H64.0825ZM68.0825 97V112.812H22.5825V97H68.0825ZM109.743 120.375V188H90.18V120.375H109.743ZM88.9925 102.875C88.9925 100.042 89.9925 97.7292 91.9925 95.9375C93.9925 94.1042 96.6175 93.1875 99.8675 93.1875C103.118 93.1875 105.743 94.1042 107.743 95.9375C109.784 97.7292 110.805 100.042 110.805 102.875C110.805 105.667 109.784 107.979 107.743 109.812C105.743 111.604 103.118 112.5 99.8675 112.5C96.6175 112.5 93.9925 111.604 91.9925 109.812C89.9925 107.979 88.9925 105.667 88.9925 102.875ZM170.34 120.375V134.062H130.215V120.375H170.34ZM139.403 103.625H158.965V166.812C158.965 168.688 159.194 170.125 159.653 171.125C160.111 172.125 160.861 172.833 161.903 173.25C162.944 173.625 164.278 173.812 165.903 173.812C167.069 173.812 168.069 173.771 168.903 173.688C169.736 173.604 170.507 173.5 171.215 173.375V187.5C169.548 188.042 167.778 188.458 165.903 188.75C164.028 189.083 161.986 189.25 159.778 189.25C155.569 189.25 151.923 188.562 148.84 187.188C145.798 185.812 143.465 183.646 141.84 180.688C140.215 177.688 139.403 173.792 139.403 169V103.625ZM255.562 153.25V168.375H190.062L189 156.5L226.25 97H241.688L224.938 124.75L208 153.25H255.562ZM245.812 97V188H226.312V97H245.812ZM316.723 114.312L293.223 188H271.473L305.16 97H318.91L316.723 114.312ZM336.223 188L312.66 114.312L310.223 97H324.16L357.973 188H336.223ZM335.223 154.125V169.875H287.785V154.125H335.223ZM397.258 92V188H377.695V92H397.258ZM444.042 92V188H424.48V92H444.042Z" fill="#0094FF"/>
</svg>
